<mxfile host="app.diagrams.net" modified="2020-12-08T13:33:48.307Z" agent="5.0 (Windows NT 10.0; Win64; x64) AppleWebKit/537.36 (KHTML, like Gecko) Chrome/87.0.4280.88 Safari/537.36" etag="Z9w-lz3U9nNGXKe2cXaH" version="13.10.4" type="github">
  <diagram id="JQ935dEff7e0mPWDVM7o" name="Page-1">
    <mxGraphModel dx="1715" dy="1105" grid="1" gridSize="10" guides="1" tooltips="1" connect="1" arrows="1" fold="1" page="1" pageScale="1" pageWidth="1700" pageHeight="1100" math="0" shadow="0">
      <root>
        <mxCell id="0" />
        <mxCell id="1" parent="0" />
        <mxCell id="KqAvhqbSGdXWpDiNRcOl-2" value="" style="aspect=fixed;pointerEvents=1;shadow=0;dashed=0;html=1;strokeColor=none;labelPosition=center;verticalLabelPosition=bottom;verticalAlign=top;align=center;shape=mxgraph.mscae.enterprise.internet;fillColor=#F0F0F0;" vertex="1" parent="1">
          <mxGeometry x="530" y="20" width="590" height="365.8" as="geometry" />
        </mxCell>
        <mxCell id="KqAvhqbSGdXWpDiNRcOl-3" value="" style="html=1;verticalLabelPosition=bottom;align=center;labelBackgroundColor=#ffffff;verticalAlign=top;strokeWidth=2;strokeColor=#0080F0;shadow=0;dashed=0;shape=mxgraph.ios7.icons.user;fillColor=#F0F0F0;" vertex="1" parent="1">
          <mxGeometry x="500" y="20" width="30" height="30" as="geometry" />
        </mxCell>
        <mxCell id="KqAvhqbSGdXWpDiNRcOl-4" value="Chicago, Portland, EU" style="text;html=1;align=center;verticalAlign=middle;resizable=0;points=[];autosize=1;" vertex="1" parent="1">
          <mxGeometry x="450" y="60" width="130" height="20" as="geometry" />
        </mxCell>
        <mxCell id="KqAvhqbSGdXWpDiNRcOl-5" value="" style="html=1;verticalLabelPosition=bottom;align=center;labelBackgroundColor=#ffffff;verticalAlign=top;strokeWidth=2;strokeColor=#0080F0;shadow=0;dashed=0;shape=mxgraph.ios7.icons.user;fillColor=#F0F0F0;" vertex="1" parent="1">
          <mxGeometry x="1190" y="20" width="30" height="30" as="geometry" />
        </mxCell>
        <mxCell id="KqAvhqbSGdXWpDiNRcOl-6" value="Boston, Charlette" style="text;html=1;align=center;verticalAlign=middle;resizable=0;points=[];autosize=1;" vertex="1" parent="1">
          <mxGeometry x="1150" y="60" width="110" height="20" as="geometry" />
        </mxCell>
      </root>
    </mxGraphModel>
  </diagram>
</mxfile>
